<svg version="1.0" xmlns="http://www.w3.org/2000/svg" xmlns:xlink="http://www.w3.org/1999/xlink" viewBox="0 0 179 40"><switch><g><defs><path id="a" d="M175.8 3.5v3.8h3v2.1h-3v9.8c0 .4 0 .7.1 1 .1.2.2.4.4.6.2.1.3.2.6.3.2 0 .4.1.7.1.2 0 .5 0 .7-.1.3 0 .4-.1.6-.1v2.2c-.2.1-.5.1-.8.2-.3.1-.8.1-1.3.1s-1-.1-1.4-.2c-.4-.1-.8-.4-1.2-.7-.3-.3-.6-.8-.8-1.3-.2-.5-.3-1.2-.3-2V9.5h-2.9V7.4h2.9V3.5h2.7zm-17.7 3.9l.1 2c.6-.7 1.3-1.3 2.1-1.7.8-.4 1.7-.6 2.7-.6.8 0 1.5.1 2.1.3.6.2 1.2.5 1.6 1 .4.5.8 1.1 1 1.8.2.7.4 1.6.4 2.6v10.4h-2.7V12.8c0-.6-.1-1.1-.2-1.6-.1-.4-.3-.8-.6-1.1-.3-.3-.6-.5-1-.6-.4-.1-.9-.2-1.4-.2-.9 0-1.7.2-2.3.7-.7.5-1.2 1.1-1.6 1.8v11.3h-2.7V7.4h2.5zm-12.3 1.9c-.5 0-1.1.1-1.5.3-.5.2-.9.5-1.2.9-.4.4-.7.9-.9 1.4-.2.6-.4 1.2-.5 1.9h8v-.2c0-.5-.1-1-.3-1.6s-.4-1-.7-1.4c-.3-.4-.7-.7-1.2-1-.4-.2-1-.3-1.7-.3zm.3 14.2c-1.1 0-2.1-.2-3-.6-.9-.4-1.7-.9-2.3-1.6-.6-.7-1.1-1.5-1.5-2.4-.3-.9-.5-2-.5-3.1v-.6c0-1.3.2-2.4.6-3.5.4-1 .9-1.9 1.6-2.6.6-.7 1.4-1.2 2.2-1.6.8-.4 1.7-.5 2.6-.5 1.1 0 2.1.2 2.9.6.8.4 1.5.9 2 1.6.5.7.9 1.5 1.2 2.5.3.9.4 2 .4 3.1V16h-10.8c0 .7.1 1.4.4 2.1.2.6.5 1.2.9 1.7s.9.8 1.5 1.1c.6.3 1.2.4 1.9.4 1 0 1.8-.2 2.4-.6.7-.4 1.3-.9 1.8-1.6l1.7 1.3c-.3.4-.6.8-.9 1.1-.4.4-.8.7-1.3 1-.5.3-1 .5-1.7.7-.6.2-1.3.3-2.1.3zM115.7 7.4l.1 1.8c.5-.6 1.2-1.1 2-1.5.8-.4 1.7-.5 2.7-.5 1 0 1.9.2 2.7.6.8.4 1.4 1.1 1.8 1.9.5-.8 1.2-1.4 2.1-1.8.8-.5 1.9-.7 3-.7.9 0 1.6.1 2.3.3.7.2 1.2.6 1.7 1 .5.5.8 1.1 1 1.8.2.7.4 1.6.4 2.6v10.4h-2.7V12.8c0-.7-.1-1.2-.2-1.7-.2-.4-.4-.8-.7-1.1-.3-.3-.7-.4-1.1-.5-.4-.1-.9-.2-1.4-.2-.6 0-1.1.1-1.5.3-.4.2-.8.4-1.1.7-.3.3-.6.6-.7 1.1-.2.4-.3.8-.3 1.3v10.5h-2.7V12.8c0-.6-.1-1.1-.2-1.6-.2-.4-.4-.8-.7-1.1-.3-.3-.6-.5-1.1-.6-.4-.1-.9-.2-1.4-.2-1 0-1.8.2-2.3.6-.6.4-1 1-1.3 1.6v11.6h-2.7V7.4h2.3zM99.2 9.3c.6-.7 1.3-1.2 2-1.6.8-.4 1.7-.6 2.7-.6.8 0 1.5.1 2.1.3.6.2 1.2.5 1.6 1 .4.5.8 1.1 1 1.8.2.7.4 1.6.4 2.6v10.4h-2.7V12.8c0-.6-.1-1.1-.2-1.6-.1-.4-.3-.8-.6-1.1-.3-.3-.6-.5-1-.6-.4-.1-.9-.2-1.4-.2-.9 0-1.7.2-2.3.7-.7.5-1.2 1.1-1.6 1.8v11.3h-2.7V.7h2.7v8.6zm-12.1 12c.5 0 .9-.1 1.4-.2l1.2-.6c.3-.3.6-.6.8-1 .2-.4.3-.8.4-1.2h2.6c0 .7-.2 1.4-.6 2-.3.6-.8 1.2-1.4 1.7-.6.5-1.2.9-2 1.2-.8.3-1.5.4-2.4.4-1.2 0-2.2-.2-3.1-.6-.9-.4-1.6-1-2.2-1.7-.6-.7-1-1.6-1.3-2.5-.3-1-.4-2-.4-3V15c0-1.1.1-2.1.4-3 .3-1 .7-1.8 1.3-2.5.6-.7 1.3-1.3 2.2-1.7.9-.4 1.9-.6 3.1-.6.9 0 1.8.1 2.5.4.8.3 1.4.7 2 1.2.6.5 1 1.1 1.3 1.8.3.7.5 1.5.5 2.3h-2.6c0-.5-.2-.9-.3-1.4-.2-.4-.4-.8-.8-1.1-.3-.3-.7-.6-1.2-.8-.4-.2-.9-.3-1.5-.3-.8 0-1.5.2-2.1.5-.6.3-1 .8-1.3 1.3-.3.5-.6 1.2-.7 1.8-.1.7-.2 1.4-.2 2v.6c0 .7.1 1.4.2 2.1.1.7.4 1.3.7 1.8.3.5.8 1 1.3 1.3.7.4 1.4.6 2.2.6zm-16-12c-.5 0-1.1.1-1.5.3-.5.2-.9.5-1.2.9-.4.4-.7.9-.9 1.4-.2.6-.4 1.2-.5 1.9h8v-.2c0-.5-.1-1-.3-1.6s-.4-1-.7-1.4c-.3-.4-.7-.7-1.2-1-.5-.2-1.1-.3-1.7-.3zm.3 14.2c-1.1 0-2.1-.2-3-.6-.9-.4-1.7-.9-2.3-1.6-.6-.7-1.1-1.5-1.5-2.4-.3-.9-.5-2-.5-3.1v-.6c0-1.3.2-2.4.6-3.5.4-1 .9-1.9 1.6-2.6.6-.7 1.4-1.2 2.2-1.6.8-.4 1.7-.5 2.6-.5 1.1 0 2.1.2 2.9.6.8.4 1.5.9 2 1.6.5.7.9 1.5 1.2 2.5.3.9.4 2 .4 3.1V16H66.8c0 .7.1 1.4.4 2.1.2.6.5 1.2.9 1.7s.9.8 1.5 1.1c.6.3 1.2.4 1.9.4 1 0 1.8-.2 2.4-.6.7-.4 1.3-.9 1.8-1.6l1.7 1.3c-.3.4-.6.8-.9 1.1-.4.4-.8.7-1.3 1-.5.3-1 .5-1.7.7-.6.2-1.3.3-2.1.3zM63.5 4.2h-6.9v19h-2.8v-19h-6.9V1.9h16.6v2.3z"/></defs><use xlink:href="#a" overflow="visible" fill="#FFF"/><clipPath id="b"><use xlink:href="#a" overflow="visible"/></clipPath><g clip-path="url(#b)"><defs><path id="c" d="M-98.6-147.4h344.8V95H-98.6z"/></defs><use xlink:href="#c" overflow="visible" fill="#FFF"/><clipPath id="d"><use xlink:href="#c" overflow="visible"/></clipPath><path clip-path="url(#d)" fill="#FFF" d="M45.7-.5H180v25.2H45.7z"/></g><defs><path id="e" d="M19.3 0L9.6 20.1l9.7-6.8 9.7 6.8z"/></defs><clipPath id="f"><use xlink:href="#e" overflow="visible"/></clipPath><g clip-path="url(#f)"><defs><path id="g" d="M-98.6-147.4h344.8V95H-98.6z"/></defs><clipPath id="h"><use xlink:href="#g" overflow="visible"/></clipPath><path clip-path="url(#h)" fill="#3AE8AD" d="M8.4-1.2h21.8v22.5H8.4z"/></g><defs><path id="i" d="M4.9 29.9L0 40l19.3-10.1L38.5 40l-4.8-10.1-14.4-10z"/></defs><clipPath id="j"><use xlink:href="#i" overflow="visible"/></clipPath><g clip-path="url(#j)"><defs><path id="k" d="M-98.6-147.4h344.8V95H-98.6z"/></defs><clipPath id="l"><use xlink:href="#k" overflow="visible"/></clipPath><path clip-path="url(#l)" fill="#3F79DA" d="M-1.2 18.7h40.9v22.5H-1.2z"/></g><defs><path id="m" d="M176.4 34.1v.5c.1-.2.3-.3.5-.4.2-.1.4-.2.7-.2.2 0 .4 0 .5.1.2.1.3.1.4.3.1.1.2.3.3.5.1.2.1.4.1.7v2.7h-.7v-2.7c0-.2 0-.3-.1-.4 0-.1-.1-.2-.2-.3-.1-.1-.2-.1-.3-.2h-.4c-.2 0-.4.1-.6.2-.2.1-.3.3-.4.5v2.9h-.7v-4.1h.9zm-5.7 2.1c0 .2 0 .4.1.6 0 .2.1.3.2.5.1.1.2.2.4.3.1.1.3.1.5.1s.4 0 .5-.1c.1-.1.3-.2.4-.3.1-.1.2-.3.2-.5s.1-.4.1-.6v-.1c0-.2 0-.4-.1-.6 0-.2-.1-.3-.2-.5-.1-.1-.2-.2-.4-.3-.1-.1-.3-.1-.5-.1s-.4 0-.5.1c-.1.1-.3.2-.4.3-.1.1-.2.3-.2.5-.1.2-.1.4-.1.7zm-.7-.1c0-.3 0-.6.1-.8.1-.3.2-.5.4-.7.2-.2.4-.3.6-.4.2-.1.5-.2.8-.2.3 0 .6.1.8.2.2.1.4.3.6.4.2.2.3.4.4.7.1.3.1.5.1.8v.1c0 .3 0 .6-.1.8-.1.3-.2.5-.4.7-.2.2-.4.3-.6.4-.2.1-.5.2-.8.2-.3 0-.6-.1-.8-.2-.2-.1-.4-.2-.6-.4-.2-.2-.3-.4-.4-.7-.1-.3-.1-.5-.1-.9zm-2.9-3.1c0-.1 0-.2.1-.3.1-.1.2-.1.3-.1.1 0 .2 0 .3.1.1.1.1.2.1.3 0 .1 0 .2-.1.3-.1.1-.2.1-.3.1-.1 0-.2 0-.3-.1 0-.1-.1-.2-.1-.3zm.8 5.2h-.7v-4.1h.7v4.1zm-3.5-5.1v1h.8v.5h-.8v2.8c0 .1.1.1.1.1l.1.1h.6v.6h-.5c-.1 0-.3 0-.4-.1-.1 0-.2-.1-.3-.2-.1-.1-.2-.2-.2-.3-.1-.1-.1-.3-.1-.5v-2.5h-.8v-.5h.8v-1h.7zm-5 4.5c.1 0 .2 0 .4-.1.1 0 .2-.1.3-.1.1-.1.2-.1.2-.2l.2-.2v-.8h-.6c-.4 0-.7.1-.9.2-.2.1-.3.3-.3.6v.3c0 .1.1.2.2.2.1.1.2.1.2.1h.3zm1.2.6c0-.1 0-.1-.1-.2v-.2l-.2.2c-.1.1-.2.1-.3.2-.1 0-.2.1-.3.1h-.4c-.2 0-.4 0-.6-.1-.2-.1-.3-.1-.4-.3s-.2-.2-.3-.4c-.1-.1-.1-.3-.1-.5s0-.4.1-.6c.1-.2.2-.3.4-.4l.6-.3c.2-.1.5-.1.8-.1h.7v-.3c0-.2-.1-.4-.2-.6-.1-.1-.4-.2-.7-.2-.1 0-.3 0-.4.1-.1 0-.2.1-.3.1l-.2.2c0 .1-.1.2-.1.2h-.6c0-.1 0-.3.1-.4.1-.1.2-.3.3-.4.1-.1.3-.2.5-.3s.4-.1.7-.1c.2 0 .4 0 .6.1.2.1.4.1.5.3.1.1.2.3.3.4.1.2.1.4.1.6v2.3c0 .2.1.3.1.4v.1h-.6zm-6.1-1l1-3.1h.7l-1.5 4.1h-.5l-1.5-4.1h.7l1.1 3.1zm-6.3-1c0 .2 0 .4.1.6 0 .2.1.3.2.5.1.1.2.2.4.3.1.1.3.1.5.1s.4 0 .5-.1c.1-.1.3-.2.4-.3.1-.1.2-.3.2-.5s.1-.4.1-.6v-.1c0-.2 0-.4-.1-.6 0-.2-.1-.3-.2-.5-.1-.1-.2-.2-.4-.3-.1-.1-.3-.1-.5-.1s-.4 0-.5.1c-.1.1-.3.2-.4.3-.1.1-.2.3-.2.5-.1.2-.1.4-.1.7zm-.7-.1c0-.3 0-.6.1-.8.1-.3.2-.5.4-.7.2-.2.4-.3.6-.4.2-.1.5-.2.8-.2.3 0 .6.1.8.2.2.1.4.3.6.4.2.2.3.4.4.7.1.3.1.5.1.8v.1c0 .3 0 .6-.1.8-.1.3-.2.5-.4.7-.2.2-.4.3-.6.4-.2.1-.5.2-.8.2-.3 0-.6-.1-.8-.2-.2-.1-.4-.2-.6-.4-.2-.2-.3-.4-.4-.7-.1-.3-.1-.5-.1-.9zm-4.6-2v.5c.1-.2.3-.3.5-.4.2-.1.4-.2.7-.2.2 0 .4 0 .5.1.2.1.3.1.4.3.1.1.2.3.3.5.1.2.1.4.1.7v2.7h-.7v-2.7c0-.2 0-.3-.1-.4 0-.1-.1-.2-.2-.3-.1-.1-.2-.1-.3-.2h-.4c-.2 0-.4.1-.6.2-.2.1-.3.3-.4.5v2.9h-.7v-4.1h.9zm-5.5 0v.5c.1-.2.3-.3.5-.4.2-.1.4-.2.7-.2.2 0 .4 0 .5.1.2.1.3.1.4.3.1.1.2.3.3.5.1.2.1.4.1.7v2.7h-.7v-2.7c0-.2 0-.3-.1-.4 0-.1-.1-.2-.2-.3-.1-.1-.2-.1-.3-.2h-.4c-.2 0-.4.1-.6.2-.2.1-.3.3-.4.5v2.9h-.7v-4.1h.9zm-3 4.1h-.7v-5.5h.7v5.5zm-10.5-1.1l1-3.1h.8l-1.7 4.7c0 .1-.1.2-.1.3-.1.1-.1.2-.2.3-.1.1-.2.2-.4.3-.1.1-.3.1-.5.1h-.4v-.6h.5c.1 0 .2-.1.2-.1l.2-.2c.1-.1.1-.2.1-.3l.2-.4-1.5-4h.8l1 3zm-4.1-4v1h.8v.5h-.8v2.8c0 .1.1.1.1.1l.1.1h.6v.6h-.5c-.1 0-.3 0-.4-.1-.1 0-.2-.1-.3-.2-.1-.1-.2-.2-.2-.3-.1-.1-.1-.3-.1-.5v-2.5h-.8v-.5h.8v-1h.7zm-4-.1c0-.1 0-.2.1-.3.1-.1.2-.1.3-.1.1 0 .2 0 .3.1s.1.2.1.3c0 .1 0 .2-.1.3-.1.1-.2.1-.3.1-.1 0-.2 0-.3-.1 0-.1-.1-.2-.1-.3zm.8 5.2h-.7v-4.1h.7v4.1zm-4.3-.5c.1 0 .2 0 .4-.1.1 0 .2-.1.3-.2.1-.1.2-.2.2-.3.1-.1.1-.2.1-.3h.7c0 .2-.1.4-.2.5-.1.2-.2.3-.4.4-.1.1-.3.2-.5.3-.2.1-.4.1-.6.1-.3 0-.6-.1-.8-.2-.2-.1-.4-.3-.6-.4-.2-.2-.3-.4-.3-.6-.1-.2-.1-.5-.1-.8V36c0-.3 0-.5.1-.8.1-.2.2-.5.3-.6.2-.2.3-.3.6-.4.2-.1.5-.2.8-.2.2 0 .5 0 .7.1.2.1.4.2.5.3.1.1.3.3.3.5.1.2.1.4.1.6h-.7c0-.1 0-.2-.1-.4 0-.1-.1-.2-.2-.3-.1-.1-.2-.1-.3-.2-.1 0-.2-.1-.4-.1s-.4 0-.5.1c-.1.1-.3.2-.3.3-.1.1-.2.3-.2.5s-.1.4-.1.5v.2c0 .2 0 .4.1.5 0 .2.1.3.2.5.1.1.2.3.3.3.1.2.3.3.6.3zm-4.7-4.7c0-.1 0-.2.1-.3.1-.1.2-.1.3-.1.1 0 .2 0 .3.1s.1.2.1.3c0 .1 0 .2-.1.3-.1.1-.2.1-.3.1-.1 0-.2 0-.3-.1-.1-.1-.1-.2-.1-.3zm.7 5.2h-.7v-4.1h.7v4.1zm-3 0h-.7v-5.8h.7v5.8zm-3.5-2.1c0-.2 0-.4-.1-.6 0-.2-.1-.3-.2-.5l-.3-.3c-.1-.1-.3-.1-.5-.1h-.3c-.1 0-.2.1-.3.1l-.2.2-.2.2v2c0 .1.1.2.2.2l.2.2c.1 0 .2.1.3.1h.3c.2 0 .4 0 .5-.1.1-.1.3-.2.3-.3.1-.1.2-.3.2-.5.1-.1.1-.3.1-.6zm.7.1c0 .3 0 .6-.1.8-.1.3-.2.5-.3.7-.1.2-.3.3-.5.4-.2.1-.4.2-.7.2-.3 0-.5 0-.7-.1-.2-.1-.4-.2-.5-.4v2H99v-5.7h.6v.5c.1-.2.3-.3.5-.4.2-.1.4-.1.7-.1.3 0 .5.1.7.2.2.1.4.2.5.4.1.2.2.4.3.7.2.1.2.4.2.8zm-10.8-2.1v.5c.1-.2.3-.3.5-.4.2-.1.4-.1.7-.1.3 0 .5.1.7.2.2.1.4.3.5.5.1-.2.3-.4.5-.5.2-.1.5-.2.8-.2.2 0 .4 0 .6.1.2.1.3.1.4.3.1.1.2.3.3.5.1.2.1.4.1.7v2.7h-.7v-2.7c0-.2 0-.3-.1-.4 0-.1-.1-.2-.2-.3-.1-.1-.2-.1-.3-.1h-.4c-.1 0-.3 0-.4.1-.1 0-.2.1-.3.2-.1.1-.1.2-.2.3 0 .1-.1.2-.1.3v2.7h-.7v-2.7c0-.2 0-.3-.1-.4 0-.1-.1-.2-.2-.3s-.2-.1-.3-.2h-.4c-.3 0-.5.1-.6.2-.2.1-.3.2-.3.4v3H91v-4.1h.7zM88 33c0-.1 0-.2.1-.3.1-.1.2-.1.3-.1.1 0 .2 0 .3.1.1.1.1.2.1.3 0 .1 0 .2-.1.3-.1.1-.2.1-.3.1-.1 0-.2 0-.3-.1-.1-.1-.1-.2-.1-.3zm.8 5.2h-.7v-4.1h.7v4.1zm-3.5-1.4c0-.1 0-.2-.1-.3 0-.1-.1-.2-.2-.3-.1-.1-.2-.2-.4-.2-.2-.1-.4-.1-.7-.2-.3-.1-.5-.2-.7-.3l-.6-.3c-.2-.1-.3-.3-.4-.4-.1-.2-.1-.4-.1-.6 0-.2 0-.4.1-.6.1-.2.2-.3.4-.5l.6-.3c.2-.1.5-.1.8-.1.3 0 .6 0 .8.1.2.1.5.2.6.4.2.2.3.3.4.5.2.1.2.3.2.6h-.7c0-.2 0-.3-.1-.4 0-.1-.1-.2-.2-.3-.1-.1-.2-.2-.4-.2-.2-.1-.3-.1-.5-.1s-.4 0-.5.1c-.1 0-.3.1-.4.2-.1.1-.2.2-.2.3 0 .1-.1.2-.1.4 0 .1 0 .2.1.3 0 .1.1.2.2.3.1.1.2.2.4.2.2.1.4.1.6.2.3.1.6.2.8.3.2.1.4.2.6.4.1.1.3.3.3.5.1.2.1.4.1.6 0 .2 0 .4-.1.6-.1.2-.2.3-.4.5l-.6.3c-.2.1-.5.1-.8.1h-.5c-.2 0-.3-.1-.5-.1-.2-.1-.3-.1-.4-.2-.1-.1-.3-.2-.4-.3-.1-.1-.2-.3-.2-.4-.1-.7-.1-.8-.1-1h.7c0 .2 0 .4.1.5l.3.3c.1.1.3.2.4.2.2 0 .3.1.5.1.4 0 .7-.1.9-.2.3-.2.4-.5.4-.7zm-12.7.3l1-3.1h.8l-1.7 4.7c0 .1-.1.2-.1.3-.1.1-.1.2-.2.3-.1.1-.2.2-.4.3-.1.1-.3.1-.5.1h-.4v-.6h.5c.1 0 .2-.1.2-.1l.2-.2c.1-.1.1-.2.1-.3l.2-.4-1.5-4h.8l1 3zm-4.1-4v1h.8v.5h-.8v2.8c0 .1.1.1.1.1l.1.1h.6v.6h-.5c-.1 0-.3 0-.4-.1-.1 0-.2-.1-.3-.2-.1-.1-.2-.2-.2-.3-.1-.1-.1-.3-.1-.5v-2.5H67v-.5h.8v-1h.7zm-3.9-.1c0-.1 0-.2.1-.3.1-.1.2-.1.3-.1.1 0 .2 0 .3.1.1.1.1.2.1.3 0 .1 0 .2-.1.3-.1.1-.2.1-.3.1-.1 0-.2 0-.3-.1-.1-.1-.1-.2-.1-.3zm.7 5.2h-.7v-4.1h.7v4.1zm-3 0h-.7v-5.8h.7v5.8zM58.5 33c0-.1 0-.2.1-.3.1-.1.2-.1.3-.1.1 0 .2 0 .3.1.1.1.1.2.1.3 0 .1 0 .2-.1.3-.1.1-.2.1-.3.1-.1 0-.2 0-.3-.1-.1-.1-.1-.2-.1-.3zm.8 5.2h-.7v-4.1h.7v4.1zm-5.8-2c0 .2 0 .4.1.6 0 .2.1.3.2.5l.3.3c.1.1.3.1.5.1h.3c.1 0 .2-.1.3-.1.1-.1.2-.1.2-.2.1-.1.1-.2.2-.2v-1.9c0-.1-.1-.2-.2-.2l-.2-.2c-.1-.1-.2-.1-.3-.1h-.3c-.2 0-.4 0-.5.1-.1.1-.3.2-.3.3-.1.1-.2.3-.2.5 0 0-.1.2-.1.5zm-.7-.1c0-.3 0-.6.1-.9.1-.3.2-.5.3-.7.1-.2.3-.3.5-.4.2-.1.4-.2.7-.2.3 0 .5 0 .7.1.2.1.4.2.5.4v-.5h.6v4c0 .3 0 .5-.1.7-.1.2-.2.4-.4.5-.2.1-.3.3-.6.3-.2.1-.5.1-.7.1H54c-.1 0-.3-.1-.4-.1-.1-.1-.3-.1-.4-.2l-.3-.3.4-.4.3.3c.1.1.2.1.3.2.1 0 .2.1.3.1h.3c.2 0 .3 0 .5-.1.1 0 .3-.1.3-.2.1-.1.2-.2.2-.3.1-.1.1-.3.1-.5v-.4c-.1.2-.3.3-.5.4-.2.1-.4.1-.7.1-.2 0-.5-.1-.7-.2-.2-.1-.4-.2-.5-.4-.1-.2-.3-.4-.3-.7 0-.1-.1-.3-.1-.7zm-5 0h1.9l-1-2.6-.9 2.6zm2.1.6h-2.3l-.5 1.4h-.8l2.1-5.5h.6l2.1 5.5h-.8l-.4-1.4z"/></defs><use xlink:href="#m" overflow="visible" fill="#FFF"/><clipPath id="n"><use xlink:href="#m" overflow="visible"/></clipPath><g clip-path="url(#n)"><defs><path id="o" d="M-98.6-147.4h344.8V95H-98.6z"/></defs><use xlink:href="#o" overflow="visible" fill="#FFF"/><clipPath id="p"><use xlink:href="#o" overflow="visible"/></clipPath><path clip-path="url(#p)" fill="#FFF" d="M45.1 31.2h135.1v9.9H45.1z"/></g><defs><circle id="q" cx="129" cy="37.5" r=".9"/></defs><clipPath id="r"><use xlink:href="#q" overflow="visible"/></clipPath><g clip-path="url(#r)"><defs><path id="s" d="M-98.6-147.4h344.8V95H-98.6z"/></defs><clipPath id="t"><use xlink:href="#s" overflow="visible"/></clipPath><path clip-path="url(#t)" fill="#00CAF2" d="M126.9 35.3h4.3v4.3h-4.3z"/></g><defs><circle id="u" cx="77.5" cy="37.5" r=".9"/></defs><clipPath id="v"><use xlink:href="#u" overflow="visible"/></clipPath><g clip-path="url(#v)"><defs><path id="w" d="M-98.6-147.4h344.8V95H-98.6z"/></defs><clipPath id="x"><use xlink:href="#w" overflow="visible"/></clipPath><path clip-path="url(#x)" fill="#00CAF2" d="M75.4 35.3h4.3v4.3h-4.3z"/></g></g></switch></svg>